<mxfile host="Electron" modified="2024-06-23T14:57:15.702Z" agent="Mozilla/5.0 (Macintosh; Intel Mac OS X 10_15_7) AppleWebKit/537.36 (KHTML, like Gecko) draw.io/21.5.0 Chrome/112.0.5615.204 Electron/24.5.1 Safari/537.36" etag="FpajyjlZisBjzDzh9OOD" version="21.5.0" type="device">
  <diagram name="第 1 页" id="tlGDkGbJvja4Yrxn73SA">
    <mxGraphModel dx="1607" dy="1119" grid="1" gridSize="10" guides="1" tooltips="1" connect="1" arrows="1" fold="1" page="1" pageScale="1" pageWidth="827" pageHeight="1169" math="0" shadow="0">
      <root>
        <mxCell id="0" />
        <mxCell id="1" parent="0" />
        <mxCell id="AbCEoOg0ejp5z6GMqgZS-3" value="" style="edgeStyle=orthogonalEdgeStyle;rounded=0;orthogonalLoop=1;jettySize=auto;html=1;" parent="1" source="AbCEoOg0ejp5z6GMqgZS-1" target="AbCEoOg0ejp5z6GMqgZS-2" edge="1">
          <mxGeometry relative="1" as="geometry" />
        </mxCell>
        <mxCell id="AbCEoOg0ejp5z6GMqgZS-6" style="edgeStyle=orthogonalEdgeStyle;rounded=0;orthogonalLoop=1;jettySize=auto;html=1;" parent="1" source="AbCEoOg0ejp5z6GMqgZS-1" edge="1">
          <mxGeometry relative="1" as="geometry">
            <mxPoint x="290" y="450" as="targetPoint" />
          </mxGeometry>
        </mxCell>
        <mxCell id="AbCEoOg0ejp5z6GMqgZS-1" value="user" style="rounded=0;whiteSpace=wrap;html=1;" parent="1" vertex="1">
          <mxGeometry x="40" y="310" width="120" height="60" as="geometry" />
        </mxCell>
        <mxCell id="AbCEoOg0ejp5z6GMqgZS-11" value="" style="edgeStyle=orthogonalEdgeStyle;rounded=0;orthogonalLoop=1;jettySize=auto;html=1;" parent="1" source="AbCEoOg0ejp5z6GMqgZS-2" target="AbCEoOg0ejp5z6GMqgZS-10" edge="1">
          <mxGeometry relative="1" as="geometry" />
        </mxCell>
        <mxCell id="AbCEoOg0ejp5z6GMqgZS-2" value="所在部门主管" style="rounded=0;whiteSpace=wrap;html=1;" parent="1" vertex="1">
          <mxGeometry x="230" y="200" width="120" height="60" as="geometry" />
        </mxCell>
        <mxCell id="AbCEoOg0ejp5z6GMqgZS-4" value="备用金申请" style="text;html=1;align=center;verticalAlign=middle;resizable=0;points=[];autosize=1;strokeColor=#d79b00;fillColor=#ffe6cc;" parent="1" vertex="1">
          <mxGeometry x="295" y="80" width="80" height="30" as="geometry" />
        </mxCell>
        <mxCell id="AbCEoOg0ejp5z6GMqgZS-5" value="大于5000" style="text;html=1;align=center;verticalAlign=middle;resizable=0;points=[];autosize=1;strokeColor=none;fillColor=none;" parent="1" vertex="1">
          <mxGeometry x="160" y="350" width="70" height="30" as="geometry" />
        </mxCell>
        <mxCell id="AbCEoOg0ejp5z6GMqgZS-8" style="edgeStyle=orthogonalEdgeStyle;rounded=0;orthogonalLoop=1;jettySize=auto;html=1;entryX=0;entryY=0.5;entryDx=0;entryDy=0;" parent="1" source="AbCEoOg0ejp5z6GMqgZS-7" target="AbCEoOg0ejp5z6GMqgZS-9" edge="1">
          <mxGeometry relative="1" as="geometry">
            <mxPoint x="400" y="480" as="targetPoint" />
          </mxGeometry>
        </mxCell>
        <mxCell id="AbCEoOg0ejp5z6GMqgZS-7" value="所在部门主管" style="rounded=0;whiteSpace=wrap;html=1;" parent="1" vertex="1">
          <mxGeometry x="230" y="450" width="120" height="60" as="geometry" />
        </mxCell>
        <mxCell id="AbCEoOg0ejp5z6GMqgZS-13" value="" style="edgeStyle=orthogonalEdgeStyle;rounded=0;orthogonalLoop=1;jettySize=auto;html=1;" parent="1" source="AbCEoOg0ejp5z6GMqgZS-9" target="AbCEoOg0ejp5z6GMqgZS-12" edge="1">
          <mxGeometry relative="1" as="geometry" />
        </mxCell>
        <mxCell id="AbCEoOg0ejp5z6GMqgZS-9" value="综管部" style="rounded=0;whiteSpace=wrap;html=1;" parent="1" vertex="1">
          <mxGeometry x="440" y="450" width="120" height="60" as="geometry" />
        </mxCell>
        <mxCell id="AbCEoOg0ejp5z6GMqgZS-16" style="edgeStyle=orthogonalEdgeStyle;rounded=0;orthogonalLoop=1;jettySize=auto;html=1;entryX=0;entryY=0.5;entryDx=0;entryDy=0;" parent="1" source="AbCEoOg0ejp5z6GMqgZS-10" target="AbCEoOg0ejp5z6GMqgZS-15" edge="1">
          <mxGeometry relative="1" as="geometry" />
        </mxCell>
        <mxCell id="AbCEoOg0ejp5z6GMqgZS-10" value="总经理主管" style="rounded=0;whiteSpace=wrap;html=1;" parent="1" vertex="1">
          <mxGeometry x="440" y="200" width="120" height="60" as="geometry" />
        </mxCell>
        <mxCell id="AbCEoOg0ejp5z6GMqgZS-17" style="edgeStyle=orthogonalEdgeStyle;rounded=0;orthogonalLoop=1;jettySize=auto;html=1;entryX=0;entryY=0.5;entryDx=0;entryDy=0;" parent="1" source="AbCEoOg0ejp5z6GMqgZS-12" target="AbCEoOg0ejp5z6GMqgZS-15" edge="1">
          <mxGeometry relative="1" as="geometry" />
        </mxCell>
        <mxCell id="AbCEoOg0ejp5z6GMqgZS-12" value="总经理主管" style="rounded=0;whiteSpace=wrap;html=1;" parent="1" vertex="1">
          <mxGeometry x="640" y="450" width="120" height="60" as="geometry" />
        </mxCell>
        <mxCell id="AbCEoOg0ejp5z6GMqgZS-14" value="小于5000" style="text;html=1;align=center;verticalAlign=middle;resizable=0;points=[];autosize=1;strokeColor=none;fillColor=none;" parent="1" vertex="1">
          <mxGeometry x="160" y="300" width="70" height="30" as="geometry" />
        </mxCell>
        <mxCell id="AbCEoOg0ejp5z6GMqgZS-15" value="结束" style="rounded=0;whiteSpace=wrap;html=1;" parent="1" vertex="1">
          <mxGeometry x="870" y="330" width="120" height="60" as="geometry" />
        </mxCell>
        <mxCell id="AHLsmDzvGsRa0Ci6gECv-1" value="表分析" style="rounded=0;whiteSpace=wrap;html=1;" vertex="1" parent="1">
          <mxGeometry x="70" y="570" width="120" height="60" as="geometry" />
        </mxCell>
        <mxCell id="AHLsmDzvGsRa0Ci6gECv-2" value="template_form" style="rounded=0;whiteSpace=wrap;html=1;" vertex="1" parent="1">
          <mxGeometry x="30" y="680" width="120" height="60" as="geometry" />
        </mxCell>
        <mxCell id="AHLsmDzvGsRa0Ci6gECv-3" value="template" style="rounded=0;whiteSpace=wrap;html=1;" vertex="1" parent="1">
          <mxGeometry x="175" y="680" width="120" height="60" as="geometry" />
        </mxCell>
        <mxCell id="AHLsmDzvGsRa0Ci6gECv-4" value="process" style="rounded=0;whiteSpace=wrap;html=1;" vertex="1" parent="1">
          <mxGeometry x="320" y="680" width="120" height="60" as="geometry" />
        </mxCell>
        <mxCell id="AHLsmDzvGsRa0Ci6gECv-5" value="process_var" style="rounded=0;whiteSpace=wrap;html=1;" vertex="1" parent="1">
          <mxGeometry x="460" y="680" width="120" height="60" as="geometry" />
        </mxCell>
        <mxCell id="AHLsmDzvGsRa0Ci6gECv-6" value="proc" style="rounded=0;whiteSpace=wrap;html=1;" vertex="1" parent="1">
          <mxGeometry x="950" y="1242" width="120" height="60" as="geometry" />
        </mxCell>
        <mxCell id="AHLsmDzvGsRa0Ci6gECv-7" value="flow_link" style="rounded=0;whiteSpace=wrap;html=1;" vertex="1" parent="1">
          <mxGeometry x="1330" y="678.5" width="120" height="60" as="geometry" />
        </mxCell>
        <mxCell id="AHLsmDzvGsRa0Ci6gECv-8" value="flow" style="rounded=0;whiteSpace=wrap;html=1;" vertex="1" parent="1">
          <mxGeometry x="770" y="681.5" width="120" height="60" as="geometry" />
        </mxCell>
        <mxCell id="AHLsmDzvGsRa0Ci6gECv-9" value="flow_type" style="rounded=0;whiteSpace=wrap;html=1;" vertex="1" parent="1">
          <mxGeometry x="970" y="678" width="120" height="60" as="geometry" />
        </mxCell>
        <mxCell id="AHLsmDzvGsRa0Ci6gECv-10" value="entry" style="rounded=0;whiteSpace=wrap;html=1;" vertex="1" parent="1">
          <mxGeometry x="330" y="1240" width="120" height="60" as="geometry" />
        </mxCell>
        <mxCell id="AHLsmDzvGsRa0Ci6gECv-11" value="entry_data" style="rounded=0;whiteSpace=wrap;html=1;" vertex="1" parent="1">
          <mxGeometry x="470" y="1240" width="120" height="60" as="geometry" />
        </mxCell>
        <mxCell id="AHLsmDzvGsRa0Ci6gECv-12" value="emp" style="rounded=0;whiteSpace=wrap;html=1;" vertex="1" parent="1">
          <mxGeometry x="620" y="1240" width="120" height="60" as="geometry" />
        </mxCell>
        <mxCell id="AHLsmDzvGsRa0Ci6gECv-13" value="dept" style="rounded=0;whiteSpace=wrap;html=1;" vertex="1" parent="1">
          <mxGeometry x="780" y="1240" width="120" height="60" as="geometry" />
        </mxCell>
        <mxCell id="AHLsmDzvGsRa0Ci6gECv-14" value="&lt;div style=&quot;background-color: rgb(30, 31, 34); color: rgb(188, 190, 196); font-family: Menlo-Regular, monospace; font-size: 9.8pt;&quot;&gt;流程模板表单控件&lt;/div&gt;" style="text;html=1;align=center;verticalAlign=middle;resizable=0;points=[];autosize=1;strokeColor=none;fillColor=none;" vertex="1" parent="1">
          <mxGeometry x="25" y="648" width="130" height="30" as="geometry" />
        </mxCell>
        <mxCell id="AHLsmDzvGsRa0Ci6gECv-15" value="&lt;div style=&quot;background-color: rgb(30, 31, 34); color: rgb(188, 190, 196); font-family: Menlo-Regular, monospace; font-size: 9.8pt;&quot;&gt;流程模板&lt;/div&gt;" style="text;html=1;align=center;verticalAlign=middle;resizable=0;points=[];autosize=1;strokeColor=none;fillColor=none;" vertex="1" parent="1">
          <mxGeometry x="190" y="648" width="80" height="30" as="geometry" />
        </mxCell>
        <mxCell id="AHLsmDzvGsRa0Ci6gECv-17" value="&lt;div style=&quot;background-color: rgb(30, 31, 34); color: rgb(188, 190, 196); font-family: Menlo-Regular, monospace; font-size: 9.8pt;&quot;&gt;工作流定义表&lt;/div&gt;" style="text;html=1;align=center;verticalAlign=middle;resizable=0;points=[];autosize=1;strokeColor=none;fillColor=none;" vertex="1" parent="1">
          <mxGeometry x="770" y="651.5" width="100" height="30" as="geometry" />
        </mxCell>
        <mxCell id="AHLsmDzvGsRa0Ci6gECv-18" value="&lt;div style=&quot;background-color: rgb(30, 31, 34); color: rgb(188, 190, 196); font-family: Menlo-Regular, monospace; font-size: 9.8pt;&quot;&gt;流程步骤&lt;/div&gt;" style="text;html=1;align=center;verticalAlign=middle;resizable=0;points=[];autosize=1;strokeColor=none;fillColor=none;" vertex="1" parent="1">
          <mxGeometry x="340" y="648" width="80" height="30" as="geometry" />
        </mxCell>
        <mxCell id="AHLsmDzvGsRa0Ci6gECv-19" value="type字段？" style="rounded=0;whiteSpace=wrap;html=1;fillColor=#f5f5f5;fontColor=#333333;strokeColor=#666666;" vertex="1" parent="1">
          <mxGeometry x="320" y="740" width="120" height="30" as="geometry" />
        </mxCell>
        <mxCell id="AHLsmDzvGsRa0Ci6gECv-20" value="process_to字段？" style="rounded=0;whiteSpace=wrap;html=1;fillColor=#f5f5f5;fontColor=#333333;strokeColor=#666666;" vertex="1" parent="1">
          <mxGeometry x="320" y="770" width="120" height="30" as="geometry" />
        </mxCell>
        <mxCell id="AHLsmDzvGsRa0Ci6gECv-21" value="position:执行顺序，如果是同级则相同" style="rounded=0;whiteSpace=wrap;html=1;fillColor=#f5f5f5;fontColor=#333333;strokeColor=#666666;" vertex="1" parent="1">
          <mxGeometry x="320" y="800" width="120" height="30" as="geometry" />
        </mxCell>
        <mxCell id="AHLsmDzvGsRa0Ci6gECv-22" value="&lt;div style=&quot;background-color: rgb(30, 31, 34); color: rgb(188, 190, 196); font-family: Menlo-Regular, monospace; font-size: 9.8pt;&quot;&gt;流程步骤流转轨迹&lt;/div&gt;" style="text;html=1;align=center;verticalAlign=middle;resizable=0;points=[];autosize=1;strokeColor=none;fillColor=none;" vertex="1" parent="1">
          <mxGeometry x="1320" y="646.5" width="130" height="30" as="geometry" />
        </mxCell>
        <mxCell id="AHLsmDzvGsRa0Ci6gECv-23" value="&lt;div style=&quot;background-color: rgb(30, 31, 34); color: rgb(188, 190, 196); font-family: &amp;quot;JetBrains Mono&amp;quot;, monospace; font-size: 9.8pt;&quot;&gt;&lt;span style=&quot;color:#6aab73;&quot;&gt;Condition:&lt;/span&gt;&lt;span style=&quot;color:#6aab73;font-family:&#39;Menlo-Regular&#39;,monospace;&quot;&gt;表示步骤流转&lt;/span&gt;&lt;span style=&quot;color:#6aab73;&quot;&gt;\nRole:&lt;/span&gt;&lt;span style=&quot;color:#6aab73;font-family:&#39;Menlo-Regular&#39;,monospace;&quot;&gt;当前步骤操作人&lt;/span&gt;&lt;span style=&quot;color:#6aab73;&quot;&gt;\nDept:&lt;/span&gt;&lt;span style=&quot;color:#6aab73;font-family:&#39;Menlo-Regular&#39;,monospace;&quot;&gt;部门&lt;/span&gt;&lt;span style=&quot;color:#6aab73;&quot;&gt;\nEmp:&lt;/span&gt;&lt;span style=&quot;color:#6aab73;font-family:&#39;Menlo-Regular&#39;,monospace;&quot;&gt;员工&lt;/span&gt;&lt;span style=&quot;color:#6aab73;&quot;&gt;\nSys:&lt;/span&gt;&lt;span style=&quot;color:#6aab73;font-family:&#39;Menlo-Regular&#39;,monospace;&quot;&gt;系统自动选人&lt;/span&gt;&lt;/div&gt;" style="text;whiteSpace=wrap;html=1;" vertex="1" parent="1">
          <mxGeometry x="1290" y="768.5" width="560" height="50" as="geometry" />
        </mxCell>
        <mxCell id="AHLsmDzvGsRa0Ci6gECv-24" value="type字段？" style="rounded=0;whiteSpace=wrap;html=1;fillColor=#f5f5f5;fontColor=#333333;strokeColor=#666666;" vertex="1" parent="1">
          <mxGeometry x="1330" y="738.5" width="120" height="30" as="geometry" />
        </mxCell>
        <mxCell id="AHLsmDzvGsRa0Ci6gECv-25" value="记录了每个process中的内容进行的记录，&lt;br&gt;包含条件，审批人类型，条件表达式，重点是指定下一个节点" style="text;html=1;align=center;verticalAlign=middle;resizable=0;points=[];autosize=1;strokeColor=none;fillColor=none;" vertex="1" parent="1">
          <mxGeometry x="1290" y="611.5" width="350" height="40" as="geometry" />
        </mxCell>
        <mxCell id="AHLsmDzvGsRa0Ci6gECv-26" value="流程节点总数和流转关系的json，由工具生成" style="text;html=1;align=center;verticalAlign=middle;resizable=0;points=[];autosize=1;strokeColor=none;fillColor=none;" vertex="1" parent="1">
          <mxGeometry x="710" y="618" width="260" height="30" as="geometry" />
        </mxCell>
        <mxCell id="AHLsmDzvGsRa0Ci6gECv-27" value="process_id" style="text;html=1;align=center;verticalAlign=middle;resizable=0;points=[];autosize=1;strokeColor=none;fillColor=none;" vertex="1" parent="1">
          <mxGeometry x="1330" y="826.5" width="80" height="30" as="geometry" />
        </mxCell>
        <mxCell id="AHLsmDzvGsRa0Ci6gECv-28" value="flow_id" style="text;html=1;align=center;verticalAlign=middle;resizable=0;points=[];autosize=1;strokeColor=none;fillColor=none;" vertex="1" parent="1">
          <mxGeometry x="1340" y="868.5" width="60" height="30" as="geometry" />
        </mxCell>
        <mxCell id="AHLsmDzvGsRa0Ci6gECv-29" value="child_flow_id:子流程&lt;span style=&quot;font-size: 9.8pt; color: rgb(106, 171, 115); font-family: &amp;quot;JetBrains Mono&amp;quot;, monospace;&quot;&gt;id&lt;/span&gt;" style="rounded=0;whiteSpace=wrap;html=1;fillColor=#f5f5f5;fontColor=#333333;strokeColor=#666666;" vertex="1" parent="1">
          <mxGeometry x="320" y="830" width="120" height="30" as="geometry" />
        </mxCell>
        <mxCell id="AHLsmDzvGsRa0Ci6gECv-30" value="child_after:&lt;br&gt;&lt;div style=&quot;background-color: rgb(30, 31, 34); color: rgb(188, 190, 196); font-family: Menlo-Regular, monospace; font-size: 9.8pt;&quot;&gt;子流程结束后&lt;span style=&quot;color:#6aab73;font-family:&#39;JetBrains Mono&#39;,monospace;&quot;&gt; 1.&lt;/span&gt;&lt;span style=&quot;color:#6aab73;&quot;&gt;同时结束父流程&lt;/span&gt;&lt;span style=&quot;color:#6aab73;font-family:&#39;JetBrains Mono&#39;,monospace;&quot;&gt; 2.&lt;/span&gt;&lt;span style=&quot;color:#6aab73;&quot;&gt;返回父流程&lt;/span&gt;&lt;/div&gt;" style="rounded=0;whiteSpace=wrap;html=1;fillColor=#f5f5f5;fontColor=#333333;strokeColor=#666666;" vertex="1" parent="1">
          <mxGeometry x="320" y="858" width="120" height="82" as="geometry" />
        </mxCell>
        <mxCell id="AHLsmDzvGsRa0Ci6gECv-31" value="child_back_process:&lt;br&gt;&lt;div style=&quot;background-color: rgb(30, 31, 34); color: rgb(188, 190, 196); font-family: Menlo-Regular, monospace; font-size: 9.8pt;&quot;&gt;子流程结束后返回父流程进程&lt;/div&gt;" style="rounded=0;whiteSpace=wrap;html=1;fillColor=#f5f5f5;fontColor=#333333;strokeColor=#666666;" vertex="1" parent="1">
          <mxGeometry x="320" y="940" width="120" height="50" as="geometry" />
        </mxCell>
        <mxCell id="AHLsmDzvGsRa0Ci6gECv-32" value="flow_id" style="rounded=0;whiteSpace=wrap;html=1;fillColor=#f5f5f5;fontColor=#333333;strokeColor=#666666;" vertex="1" parent="1">
          <mxGeometry x="460" y="740" width="120" height="30" as="geometry" />
        </mxCell>
        <mxCell id="AHLsmDzvGsRa0Ci6gECv-33" value="process_id" style="rounded=0;whiteSpace=wrap;html=1;fillColor=#f5f5f5;fontColor=#333333;strokeColor=#666666;" vertex="1" parent="1">
          <mxGeometry x="460" y="770" width="120" height="30" as="geometry" />
        </mxCell>
        <mxCell id="AHLsmDzvGsRa0Ci6gECv-34" value="expression_field" style="rounded=0;whiteSpace=wrap;html=1;fillColor=#f5f5f5;fontColor=#333333;strokeColor=#666666;" vertex="1" parent="1">
          <mxGeometry x="460" y="800" width="120" height="30" as="geometry" />
        </mxCell>
        <mxCell id="AHLsmDzvGsRa0Ci6gECv-35" value="来源于template_form字段进行的匹配" style="text;html=1;align=center;verticalAlign=middle;resizable=0;points=[];autosize=1;strokeColor=none;fillColor=none;" vertex="1" parent="1">
          <mxGeometry x="440" y="830" width="220" height="30" as="geometry" />
        </mxCell>
        <mxCell id="AHLsmDzvGsRa0Ci6gECv-36" value="&lt;div style=&quot;background-color: rgb(30, 31, 34); color: rgb(188, 190, 196); font-family: Menlo-Regular, monospace; font-size: 9.8pt;&quot;&gt;处理明细表&lt;/div&gt;" style="text;html=1;align=center;verticalAlign=middle;resizable=0;points=[];autosize=1;strokeColor=none;fillColor=none;" vertex="1" parent="1">
          <mxGeometry x="960" y="1210" width="90" height="30" as="geometry" />
        </mxCell>
        <mxCell id="AHLsmDzvGsRa0Ci6gECv-38" value="&lt;div style=&quot;background-color:#ffffff;padding:0px 0px 0px 2px;&quot;&gt;&lt;div style=&quot;font-family: Menlo;&quot;&gt;&lt;p style=&quot;margin:0;&quot;&gt;{&lt;/p&gt;&lt;p style=&quot;margin:0;&quot;&gt;  &quot;total&quot;: &lt;span style=&quot;color:#0000ff;&quot;&gt;4&lt;/span&gt;,&lt;/p&gt;&lt;p style=&quot;margin:0;&quot;&gt;  &lt;span style=&quot;color:#008000;&quot;&gt;&quot;list&quot;&lt;/span&gt;: {&lt;/p&gt;&lt;p style=&quot;margin:0;&quot;&gt;    &lt;span style=&quot;color:#008000;&quot;&gt;&quot;0&quot;&lt;/span&gt;: {&lt;/p&gt;&lt;p style=&quot;margin:0;&quot;&gt;      &lt;span style=&quot;color:#008000;&quot;&gt;&quot;id&quot;&lt;/span&gt;: &lt;span style=&quot;color:#0000ff;&quot;&gt;57&lt;/span&gt;,&lt;/p&gt;&lt;p style=&quot;margin:0;&quot;&gt;      &lt;span style=&quot;color:#008000;&quot;&gt;&quot;flow_id&quot;&lt;/span&gt;: &lt;span style=&quot;color:#0000ff;&quot;&gt;3&lt;/span&gt;,&lt;/p&gt;&lt;p style=&quot;margin:0;&quot;&gt;      &lt;span style=&quot;color:#008000;&quot;&gt;&quot;process_name&quot;&lt;/span&gt;: &lt;span style=&quot;color:#008000;&quot;&gt;&quot;员工提交申请&quot;&lt;/span&gt;,&lt;/p&gt;&lt;p style=&quot;margin:0;&quot;&gt;      &lt;span style=&quot;color:#008000;&quot;&gt;&quot;process_to&quot;&lt;/span&gt;: &lt;span style=&quot;color:#008000;&quot;&gt;&quot;73&quot;&lt;/span&gt;,&lt;/p&gt;&lt;p style=&quot;margin:0;&quot;&gt;      &lt;span style=&quot;color:#008000;&quot;&gt;&quot;icon&quot;&lt;/span&gt;: &lt;span style=&quot;color:#008000;&quot;&gt;&quot;icon-heart&quot;&lt;/span&gt;,&lt;/p&gt;&lt;p style=&quot;margin:0;&quot;&gt;      &lt;span style=&quot;color:#008000;&quot;&gt;&quot;style&quot;&lt;/span&gt;: &lt;span style=&quot;color:#008000;&quot;&gt;&quot;width:150px;height:30px;line-height:30px;color:#d54e21;left:595px;top:67px;&quot;&lt;/span&gt;&lt;/p&gt;&lt;p style=&quot;margin:0;&quot;&gt;    },&lt;/p&gt;&lt;p style=&quot;margin:0;&quot;&gt;}&lt;/p&gt;&lt;/div&gt;&lt;/div&gt;" style="text;html=1;align=left;verticalAlign=middle;resizable=0;points=[];autosize=1;strokeColor=none;fillColor=none;" vertex="1" parent="1">
          <mxGeometry x="710" y="870" width="650" height="190" as="geometry" />
        </mxCell>
        <mxCell id="AHLsmDzvGsRa0Ci6gECv-40" value="flow_no" style="rounded=0;whiteSpace=wrap;html=1;fillColor=#f5f5f5;fontColor=#333333;strokeColor=#666666;" vertex="1" parent="1">
          <mxGeometry x="770" y="741.5" width="120" height="30" as="geometry" />
        </mxCell>
        <mxCell id="AHLsmDzvGsRa0Ci6gECv-41" value="flow_name" style="rounded=0;whiteSpace=wrap;html=1;fillColor=#f5f5f5;fontColor=#333333;strokeColor=#666666;" vertex="1" parent="1">
          <mxGeometry x="770" y="771.5" width="120" height="30" as="geometry" />
        </mxCell>
        <mxCell id="AHLsmDzvGsRa0Ci6gECv-42" value="template_id" style="rounded=0;whiteSpace=wrap;html=1;fillColor=#f5f5f5;fontColor=#333333;strokeColor=#666666;" vertex="1" parent="1">
          <mxGeometry x="770" y="801.5" width="120" height="30" as="geometry" />
        </mxCell>
        <mxCell id="AHLsmDzvGsRa0Ci6gECv-44" value="jsplumb" style="rounded=0;whiteSpace=wrap;html=1;fillColor=#f5f5f5;fontColor=#333333;strokeColor=#666666;" vertex="1" parent="1">
          <mxGeometry x="770" y="831.5" width="120" height="30" as="geometry" />
        </mxCell>
        <mxCell id="AHLsmDzvGsRa0Ci6gECv-45" value="&lt;div style=&quot;background-color: rgb(30, 31, 34); color: rgb(188, 190, 196); font-family: Menlo-Regular, monospace; font-size: 9.8pt;&quot;&gt;&lt;span style=&quot;color:#6aab73;&quot;&gt;审批人 系统自动 指定人员 指定部门 指定角色&lt;/span&gt;&lt;span style=&quot;color:#6aab73;font-family:&#39;JetBrains Mono&#39;,monospace;&quot;&gt;\ntype=Condition&lt;/span&gt;&lt;span style=&quot;color:#6aab73;&quot;&gt;时不启用，&lt;/span&gt;&lt;span style=&quot;color:#6aab73;font-family:&#39;JetBrains Mono&#39;,monospace;&quot;&gt;-1002&lt;/span&gt;&lt;span style=&quot;color:#6aab73;&quot;&gt;：部门经理&lt;/span&gt;&lt;span style=&quot;color:#6aab73;font-family:&#39;JetBrains Mono&#39;,monospace;&quot;&gt; -1001:&lt;/span&gt;&lt;span style=&quot;color:#6aab73;&quot;&gt;发起部门主管&lt;/span&gt;&lt;span style=&quot;color:#6aab73;font-family:&#39;JetBrains Mono&#39;,monospace;&quot;&gt; 0:&lt;/span&gt;&lt;span style=&quot;color:#6aab73;&quot;&gt;不自动选人&lt;/span&gt;&lt;/div&gt;" style="text;whiteSpace=wrap;html=1;" vertex="1" parent="1">
          <mxGeometry x="1500" y="816.5" width="560" height="50" as="geometry" />
        </mxCell>
        <mxCell id="AHLsmDzvGsRa0Ci6gECv-46" value="&lt;div style=&quot;background-color: rgb(30, 31, 34); color: rgb(188, 190, 196); font-family: &amp;quot;JetBrains Mono&amp;quot;, monospace; font-size: 9.8pt;&quot;&gt;auditor&lt;/div&gt;" style="text;html=1;align=center;verticalAlign=middle;resizable=0;points=[];autosize=1;strokeColor=none;fillColor=none;" vertex="1" parent="1">
          <mxGeometry x="1425" y="826.5" width="80" height="30" as="geometry" />
        </mxCell>
        <mxCell id="AHLsmDzvGsRa0Ci6gECv-47" value="title:默认标题" style="rounded=0;whiteSpace=wrap;html=1;fillColor=#f5f5f5;fontColor=#333333;strokeColor=#666666;" vertex="1" parent="1">
          <mxGeometry x="330" y="1302" width="120" height="30" as="geometry" />
        </mxCell>
        <mxCell id="AHLsmDzvGsRa0Ci6gECv-48" value="其他数据，动态显示：其保存的值，由entry_data保留，同理，修改是也修改entry_data数据" style="rounded=0;whiteSpace=wrap;html=1;fillColor=#f5f5f5;fontColor=#333333;strokeColor=#666666;" vertex="1" parent="1">
          <mxGeometry x="330" y="1332" width="120" height="128" as="geometry" />
        </mxCell>
        <mxCell id="AHLsmDzvGsRa0Ci6gECv-50" value="根据条件，如果是首次创建或者不是首次时，想proc中写入数据，如果非第一次，则流程流转，创建新的流程处理记录" style="rounded=0;whiteSpace=wrap;html=1;fillColor=#f5f5f5;fontColor=#333333;strokeColor=#666666;" vertex="1" parent="1">
          <mxGeometry x="330" y="1460" width="120" height="128" as="geometry" />
        </mxCell>
        <mxCell id="AHLsmDzvGsRa0Ci6gECv-51" value="记录entry表中每一个字段的数据，包含列名，标题，列值" style="rounded=0;whiteSpace=wrap;html=1;fillColor=#f5f5f5;fontColor=#333333;strokeColor=#666666;" vertex="1" parent="1">
          <mxGeometry x="470" y="1300" width="120" height="128" as="geometry" />
        </mxCell>
      </root>
    </mxGraphModel>
  </diagram>
</mxfile>
